<?xml version="1.0" encoding="UTF-8"?> <svg xmlns="http://www.w3.org/2000/svg" width="56" height="56" viewBox="0 0 56 56" fill="none"><path d="M39.745 32.9824C39.3705 32.9825 38.9967 33.0137 38.6273 33.0755C38.1942 33.1476 37.7693 33.2624 37.3588 33.4184C36.3692 33.7928 35.4805 34.3928 34.7632 35.1706C34.046 35.9485 33.5199 36.8828 33.2268 37.8994C33.0964 38.3558 33.0146 38.8248 32.983 39.2984C32.9719 39.4521 32.9668 39.6018 32.9668 39.7617C32.9668 41.1021 33.3643 42.4124 34.109 43.5269C34.8537 44.6414 35.9121 45.51 37.1505 46.023C38.3889 46.5359 39.7515 46.6701 41.0662 46.4086C42.3808 46.1471 43.5884 45.5017 44.5362 44.5539C45.484 43.6061 46.1295 42.3985 46.391 41.0838C46.6525 39.7692 46.5183 38.4065 46.0053 37.1681C45.4924 35.9298 44.6237 34.8713 43.5092 34.1266C42.3947 33.3819 41.0844 32.9844 39.744 32.9844L39.745 32.9824ZM39.745 45.2077C38.3004 45.2064 36.9154 44.632 35.8938 43.6106C34.8722 42.5892 34.2975 41.2042 34.2959 39.7596C34.2959 39.6039 34.302 39.4491 34.3162 39.2964C34.3548 38.8186 34.4569 38.3482 34.6196 37.8974C35.1046 36.5715 36.0831 35.4843 37.3507 34.8628C37.7565 34.6657 38.1853 34.5202 38.6273 34.4299C39.3745 34.2716 40.1467 34.2721 40.8937 34.4316C41.6407 34.591 42.3459 34.9057 42.9634 35.3553C43.5809 35.8049 44.0969 36.3793 44.478 37.0413C44.8592 37.7032 45.0968 38.4379 45.1756 39.1977C45.2544 39.9574 45.1726 40.7252 44.9354 41.4513C44.6982 42.1774 44.311 42.8455 43.7989 43.4122C43.2868 43.979 42.6613 44.4317 41.9629 44.741C41.2645 45.0503 40.5088 45.2093 39.745 45.2077Z" fill="#082017"></path><path d="M38.4915 42.8918L35.9121 40.3125L36.7891 39.4345L38.4915 41.1369L42.5649 37.0645L43.4419 37.9414L38.4915 42.8918Z" fill="#082017"></path><path d="M30.6646 40.6533H8.69629V12.5805C8.69629 12.0976 8.88812 11.6345 9.22957 11.293C9.57103 10.9516 10.0341 10.7598 10.517 10.7598H15.4968V12.1071H10.0436V39.305H30.6646V40.6533Z" fill="#082017"></path><path d="M47.1946 34.4213L45.8463 32.46V12.1061H40.4902V10.7598H45.387C45.8662 10.7598 46.3259 10.9501 46.6648 11.2888C47.0038 11.6276 47.1943 12.0871 47.1946 12.5663V34.4213Z" fill="#082017"></path><path d="M20.4284 9.29395H19.0801V15.9144H20.4284V9.29395Z" fill="#082017"></path><path d="M28.6648 9.29395H27.3164V15.9144H28.6648V9.29395Z" fill="#082017"></path><path d="M36.9089 9.29395H35.5605V15.9144H36.9089V9.29395Z" fill="#082017"></path><path d="M20.5766 25.8383H15.959V21.2217H20.5766V25.8383ZM17.274 24.5233H19.2616V22.5367H17.274V24.5233Z" fill="#082017"></path><path d="M30.3032 25.8383H25.6855V21.2217H30.3032V25.8383ZM27.0005 24.5233H28.9882V22.5367H27.0005V24.5233Z" fill="#082017"></path><path d="M40.0219 25.8383H35.4043V21.2217H40.0219V25.8383ZM36.7193 24.5233H38.7069V22.5367H36.7193V24.5233Z" fill="#082017"></path><path d="M20.5766 34.0971H15.959V29.4795H20.5766V34.0971ZM17.274 32.7821H19.2616V30.7945H17.274V32.7821Z" fill="#082017"></path><path d="M30.3032 34.0971H25.6855V29.4795H30.3032V34.0971ZM27.0005 32.7821H28.9882V30.7945H27.0005V32.7821Z" fill="#082017"></path></svg> 