<?xml version="1.0" encoding="UTF-8"?> <svg xmlns="http://www.w3.org/2000/svg" id="Layer_2" viewBox="0 0 56 56"><defs><style>.cls-1,.cls-2{fill:none;}.cls-2{stroke:#082017;stroke-linecap:round;stroke-linejoin:round;}</style></defs><g id="Layer_1-2"><g><g><path class="cls-2" d="M42.42,29.48v19.19c0,1.81-1.44,3.28-3.22,3.28H18c-1.78,0-3.22-1.47-3.22-3.28V7.16c0-1.81,1.44-3.28,3.22-3.28h21.2c1.78,0,3.22,1.47,3.22,3.28V25.26"></path><polyline class="cls-2" points="21.49 3.87 22.95 7.36 34.31 7.36 35.83 3.87"></polyline><line class="cls-2" x1="24.29" y1="48.96" x2="32.91" y2="48.96"></line><polyline class="cls-2" points="20.13 30.2 28.66 23.9 37.11 30.2"></polyline><polyline class="cls-2" points="21.81 40.7 21.81 32.7 28.63 27.69 35.46 32.83 35.46 40.7"></polyline><line class="cls-2" x1="20.84" y1="40.85" x2="36.42" y2="40.85"></line><path class="cls-2" d="M26.6,38.55v-4.28c0-.49,.4-.9,.9-.9h2.19c.49,0,.9,.4,.9,.9v6.43"></path><path class="cls-2" d="M20.66,18.92s7.65-8.6,15.93,0"></path><path class="cls-2" d="M23.48,21.25s4.89-4.94,10.03,0"></path></g><rect class="cls-1" width="56" height="56"></rect></g></g></svg> 