<?xml version="1.0" encoding="UTF-8"?> <svg xmlns="http://www.w3.org/2000/svg" id="Layer_2" viewBox="0 0 56 56"><defs><style>.cls-1,.cls-2{fill:none;}.cls-2{stroke:#082017;stroke-linecap:round;stroke-linejoin:round;}</style></defs><g id="Layer_1-2"><g><g><path class="cls-2" d="M6.67,37.94s4.15,.57,4.7-5.48c0,0-1.16-6.22,4.02-8.39,0,0,3.81-2,8.45-.45,0,0,3.92,1.35,3.98,5.23,0,0-.17,2.26-2.04,3,0,0-2.96,1.63-3.17,4.46,0,0-1.01-2.64-3.54-1.02,0,0-1.31,1.5-.09,2.97s2.34,4.15,.94,6.27-7.46,5.06-11.99-1.41c0,0,3.17-.41,2.76-4.15,0,0-2.93,1.67-4.02-1.02Z"></path><path class="cls-2" d="M14.13,22.11V10.57c0-1.68,1.36-3.04,3.04-3.04h29.14c1.68,0,3.04,1.36,3.04,3.04V30.16c0,1.57-1.27,2.85-2.85,2.85h-8.64l-5.13,6.95v-6.74h-4.9s-1.89,2.38,.62,4.53c0,0,.31,.58,0,1.09,0,0-1.2,1.7-.82,3.41,0,0-.54,2.66-3.37,2.3v4.08s-3.02,.27-4.15-.99"></path><line class="cls-2" x1="32.79" y1="43.95" x2="45.83" y2="43.95"></line><line class="cls-2" x1="32.79" y1="46.28" x2="37.74" y2="46.28"></line><line class="cls-2" x1="32.79" y1="48.61" x2="39.61" y2="48.61"></line><line class="cls-2" x1="17.71" y1="11.31" x2="29.1" y2="11.31"></line><line class="cls-2" x1="17.71" y1="13.64" x2="22.99" y2="13.64"></line><polyline class="cls-2" points="24.67 21.79 24.67 19.65 34.14 11.5 43.65 19.77 43.65 27.62"></polyline><polyline class="cls-2" points="37.43 11.31 39.39 12.87 39.39 10.73 41.64 10.73 41.64 15.09 46.01 18.77 46.01 27.62"></polyline><line class="cls-2" x1="30.27" y1="29.81" x2="46.01" y2="29.81"></line><polyline class="cls-2" points="38.83 27.62 38.83 20.63 29.56 20.63 29.56 25.22 34.24 25.22 34.24 27.62"></polyline><line class="cls-2" x1="34.24" y1="25.06" x2="34.24" y2="20.83"></line></g><rect class="cls-1" width="56" height="56"></rect></g></g></svg> 