<?xml version="1.0" encoding="UTF-8"?> <svg xmlns="http://www.w3.org/2000/svg" id="Layer_2" viewBox="0 0 56 56"><defs><style>.cls-1,.cls-2{fill:none;}.cls-2{stroke:#082017;stroke-linecap:round;stroke-linejoin:round;}</style></defs><g id="Layer_1-2"><g><g><line class="cls-2" x1="6.4" y1="48.69" x2="49.62" y2="48.69"></line><line class="cls-2" x1="6.4" y1="46.15" x2="49.62" y2="46.15"></line><polyline class="cls-2" points="7.47 45.88 7.47 36.41 9.38 34.6 11.2 36.42 11.2 46.01"></polyline><polyline class="cls-2" points="11.2 45.88 11.2 36.41 13.12 34.6 14.93 36.42 14.93 46.01"></polyline><polyline class="cls-2" points="14.93 45.88 14.93 36.41 16.85 34.6 18.67 36.42 18.67 46.01"></polyline><polyline class="cls-2" points="18.67 45.88 18.67 36.41 20.58 34.6 22.4 36.42 22.4 46.01"></polyline><polyline class="cls-2" points="22.4 45.88 22.4 36.41 24.32 34.6 26.13 36.42 26.13 46.01"></polyline><polyline class="cls-2" points="26.13 45.88 26.13 36.41 28.05 34.6 29.87 36.42 29.87 46.01"></polyline><polyline class="cls-2" points="29.87 45.88 29.87 36.41 31.78 34.6 33.6 36.42 33.6 46.01"></polyline><polyline class="cls-2" points="33.6 45.88 33.6 36.41 35.52 34.6 37.33 36.42 37.33 46.01"></polyline><polyline class="cls-2" points="37.33 45.88 37.33 36.41 39.25 34.6 41.07 36.42 41.07 46.01"></polyline><polyline class="cls-2" points="41.07 45.88 41.07 36.41 42.98 34.6 44.8 36.42 44.8 46.01"></polyline><polyline class="cls-2" points="44.8 45.88 44.8 36.41 46.71 34.6 48.53 36.42 48.53 46.01"></polyline><g><polyline class="cls-2" points="15.45 32.35 15.45 23.36 26.54 13.77 37.5 23.4 37.5 32.35"></polyline><polyline class="cls-2" points="30.99 13.98 32.64 15.46 32.64 12.42 35 12.42 35 17.52 40.31 22.13 40.31 32.35"></polyline><polyline class="cls-2" points="20.07 32.35 20.07 24.82 33.08 24.82 33.08 32.35"></polyline><line class="cls-2" x1="26.58" y1="32.35" x2="26.58" y2="24.82"></line><path class="cls-2" d="M9.81,23.4c-1.83,0-3.33-1.5-3.33-3.33s1.5-3.33,3.33-3.33c0,0,.77-.1,1.33,.43"></path><path class="cls-2" d="M9.81,23.4c-1.24,0-2.23,.99-2.23,2.22s1,2.22,2.23,2.22c.85,0,1.57-.47,1.95-1.16,.09-.15,.15-.31,.2-.48"></path><path class="cls-2" d="M15.45,27.12c0,1.03-.84,1.87-1.87,1.87s-1.87-.84-1.87-1.87"></path><path class="cls-2" d="M13.5,18.43c.3-.26,.53-.6,.66-.99h0c.07-.23,.11-.46,.11-.7,0-1.16-.89-2.11-2.03-2.21-.07-.01-.14-.01-.21-.01-1.23,0-2.22,1-2.22,2.22"></path><path class="cls-2" d="M17.12,12.73c1.32,0,2.4,1.07,2.4,2.4s-1.07,2.4-2.4,2.4"></path><path class="cls-2" d="M14.16,17.44h0c.39-.17,.82-.27,1.29-.27,.17,0,.35,.01,.51,.04h.01s.01,.01,.01,.01c.31,.04,.62,.14,.89,.28h.01c.89,.43,1.55,1.28,1.75,2.29,.04,.2,.07,.41,.07,.62,0,.04,0,.1-.01,.14"></path><path class="cls-2" d="M14.26,11.13c.8-.58,1.79-.92,2.85-.92,2.71,0,4.91,2.2,4.91,4.91"></path><line class="cls-2" x1="12.04" y1="32.35" x2="12.04" y2="28.18"></line></g><polyline class="cls-2" points="38.42 20.48 41.07 15.29 39.2 15.29 42.47 7.53 45.6 17.85 43.52 17.85 46.11 22.91 43.59 22.91 46.66 30.21 42.93 30.21 42.93 32.35"></polyline></g><rect class="cls-1" width="56" height="56"></rect></g></g></svg> 