<?xml version="1.0" encoding="UTF-8"?> <svg xmlns="http://www.w3.org/2000/svg" id="Layer_2" viewBox="0 0 56 56"><defs><style>.cls-1,.cls-2{fill:none;}.cls-2{stroke:#082017;stroke-linecap:round;stroke-linejoin:round;}</style></defs><g id="Layer_1-2"><g><g><polyline class="cls-2" points="13.77 11.89 13.77 6.95 28.05 6.95 49.33 28.17 40.11 37.38"></polyline><polyline class="cls-2" points="13.77 14.38 13.77 20.89 25.36 32.48"></polyline><polyline class="cls-2" points="16.84 49.05 16.84 40.06 28.18 29.86 30.26 31.72 30.26 28.57 32.87 28.57 32.87 34.18 39.61 40.08 39.61 49.05"></polyline><line class="cls-2" x1="42.02" y1="38.53" x2="42.02" y2="49.05"></line><line class="cls-2" x1="44.52" y1="37.04" x2="44.52" y2="49.05"></line><polyline class="cls-2" points="45.65 35.22 47.1 36.45 47.1 49.05"></polyline><polyline class="cls-2" points="47.42 33.4 49.51 35.22 49.51 49.05"></polyline><polyline class="cls-2" points="25.9 48.84 21.95 48.84 21.95 41.49 34.52 41.49 34.52 48.84 28.17 48.84 28.17 43.79"></polyline><path class="cls-2" d="M11.49,16.63h-3.71c-.71,0-1.28-.58-1.28-1.28h0c0-.71,.58-1.28,1.28-1.28h13.22c.75,0,1.35,.61,1.35,1.35v.82"></path><path class="cls-2" d="M19.42,12.16c.42-.32,.95-.52,1.53-.52,1.39,0,2.51,1.12,2.51,2.51s-1.12,2.51-2.51,2.51-2.51-1.12-2.51-2.51"></path></g><rect class="cls-1" width="56" height="56"></rect></g></g></svg> 